<svg xmlns="http://www.w3.org/2000/svg" xmlns:xlink="http://www.w3.org/1999/xlink" width="500" zoomAndPan="magnify" viewBox="0 0 375 374.999991" height="500" preserveAspectRatio="xMidYMid meet" version="1.0"><path fill="#82b434" d="M 221.449219 69.445312 L 202.160156 69.445312 L 202.160156 19.289062 C 202.160156 10.773438 195.246094 3.859375 186.726562 3.859375 C 178.210938 3.859375 171.296875 10.773438 171.296875 19.289062 L 171.296875 69.445312 L 152.007812 69.445312 C 141.726562 69.445312 136.558594 81.929688 143.828125 89.199219 L 178.550781 123.917969 C 180.800781 126.1875 183.765625 127.316406 186.726562 127.316406 C 189.691406 127.316406 192.65625 126.1875 194.90625 123.917969 L 229.628906 89.199219 C 236.898438 81.929688 231.726562 69.445312 221.449219 69.445312 Z M 221.449219 69.445312 " fill-opacity="1" fill-rule="nonzero"/><path fill="#82b434" d="M 343.78125 138.890625 L 369.691406 103.257812 C 374.183594 97.097656 371.558594 88.273438 364.367188 85.601562 L 233.023438 36.820312 L 233.023438 40.183594 C 245.324219 43.640625 255.585938 52.546875 260.664062 64.769531 C 267.253906 80.679688 263.640625 98.84375 251.464844 111.035156 L 240.339844 122.160156 L 291.960938 138.90625 L 186.726562 173.023438 L 81.496094 138.890625 L 133.117188 122.144531 L 122.007812 111.019531 C 109.816406 98.828125 106.21875 80.679688 112.808594 64.753906 C 117.871094 52.546875 128.132812 43.640625 140.433594 40.183594 L 140.433594 36.820312 L 9.089844 85.601562 C 1.882812 88.273438 -0.726562 97.097656 3.765625 103.257812 L 29.675781 138.890625 L 3.765625 174.523438 C -0.726562 180.679688 1.898438 189.507812 9.089844 192.175781 L 144.121094 242.332031 C 148.625 244.011719 153.84375 242.730469 157.035156 238.890625 L 186.726562 203.257812 L 216.417969 238.890625 C 219.613281 242.730469 224.832031 244.011719 229.335938 242.332031 L 364.367188 192.175781 C 371.558594 189.507812 374.183594 180.679688 369.691406 174.523438 Z M 343.78125 138.890625 " fill-opacity="1" fill-rule="nonzero"/><path fill="#82b434" d="M 171.296875 257.113281 C 164.953125 262.839844 156.835938 266.203125 148.148438 266.203125 C 143.996094 266.203125 139.9375 265.476562 136.050781 264.027344 L 32.40625 225.539062 L 32.40625 294.105469 C 32.40625 312.40625 44.074219 328.582031 61.433594 334.367188 L 171.296875 370.972656 Z M 171.296875 257.113281 " fill-opacity="1" fill-rule="nonzero"/><path fill="#82b434" d="M 237.40625 264.027344 C 233.519531 265.476562 229.460938 266.203125 225.308594 266.203125 C 216.636719 266.203125 208.503906 262.839844 202.160156 257.097656 L 202.160156 370.957031 L 312.023438 334.351562 C 329.382812 328.582031 341.050781 312.40625 341.050781 294.105469 L 341.050781 225.539062 Z M 237.40625 264.027344 " fill-opacity="1" fill-rule="nonzero"/></svg>