<svg xmlns="http://www.w3.org/2000/svg" xmlns:xlink="http://www.w3.org/1999/xlink" width="500" zoomAndPan="magnify" viewBox="0 0 375 374.999991" height="500" preserveAspectRatio="xMidYMid meet" version="1.0"><path fill="#82b434" d="M 110.984375 171.335938 C 115.804688 187.152344 123.367188 201.765625 133.121094 214.625 C 134.839844 216.925781 134.621094 220.105469 132.609375 222.113281 L 105.941406 248.78125 L 72.699219 215.5 C 69.335938 212.140625 63.859375 212.140625 60.496094 215.5 L 52.421875 223.574219 C 49.0625 226.972656 49.0625 232.453125 52.421875 235.8125 L 85.667969 269.058594 L 52.421875 302.300781 C 49.0625 305.664062 49.0625 311.140625 52.421875 314.539062 L 60.496094 322.613281 C 63.859375 325.972656 69.335938 325.972656 72.699219 322.613281 L 105.941406 289.371094 L 139.1875 322.613281 C 142.585938 325.972656 148.0625 325.972656 151.425781 322.613281 L 159.5 314.539062 C 162.859375 311.140625 162.859375 305.664062 159.5 302.300781 L 126.253906 269.058594 L 152.886719 242.425781 C 154.933594 240.378906 158.074219 240.160156 160.375 241.914062 C 173.234375 251.632812 187.847656 259.195312 203.664062 264.050781 C 208.78125 265.625 212.03125 270.335938 211.703125 275.667969 C 208.339844 330.90625 162.382812 375 105.941406 375 C 47.453125 375 0 327.582031 0 269.058594 C 0 212.652344 44.09375 166.660156 99.367188 163.296875 C 104.699219 162.96875 109.414062 166.257812 110.984375 171.335938 Z M 267.230469 11.398438 C 331.855469 22.796875 375 84.425781 363.601562 149.050781 C 352.242188 213.675781 290.609375 256.820312 225.988281 245.421875 C 161.363281 234.023438 118.21875 172.394531 129.613281 107.769531 C 141.011719 43.144531 202.605469 0 267.230469 11.398438 Z M 203.082031 119.460938 L 226.828125 142.546875 L 283.011719 78.398438 C 285.167969 75.914062 288.96875 75.65625 291.453125 77.847656 L 304.894531 89.613281 C 307.378906 91.804688 307.636719 95.605469 305.480469 98.089844 L 243.082031 169.324219 C 241.148438 171.515625 238.917969 173.234375 236.363281 174.476562 C 233.769531 175.683594 231.027344 176.375 228.179688 176.484375 C 225.292969 176.59375 222.515625 176.15625 219.886719 175.132812 C 217.253906 174.148438 214.878906 172.613281 212.761719 170.53125 L 182.292969 140.902344 C 179.917969 138.601562 179.882812 134.765625 182.183594 132.429688 L 194.605469 119.570312 C 195.773438 118.398438 197.164062 117.777344 198.84375 117.777344 C 200.488281 117.742188 201.910156 118.328125 203.082031 119.460938 Z M 203.082031 119.460938 " fill-opacity="1" fill-rule="evenodd"/></svg>